<svg xmlns="http://www.w3.org/2000/svg" viewBox="0 0 192 192">
  <!-- Background -->
  <rect width="192" height="192" fill="#C41E3A"/>
  
  <!-- Hammer head (left side) -->
  <rect x="40" y="60" width="50" height="30" rx="4" fill="#FFD700"/>
  
  <!-- Hammer handle -->
  <rect x="85" y="50" width="12" height="85" rx="6" fill="#8B4513"/>
  
  <!-- Wrench body (right side) -->
  <g transform="translate(115, 95)">
    <!-- Main wrench body -->
    <path d="M 0 -25 Q 15 -20 20 -5 L 20 5 Q 15 20 0 25 L -5 20 Q 8 12 8 0 Q 8 -12 -5 -20 Z" fill="#FFD700"/>
    <!-- Wrench grip -->
    <circle cx="-8" cy="0" r="6" fill="#8B4513"/>
  </g>
  
  <!-- Gear accent (bottom right) -->
  <circle cx="145" cy="140" r="18" fill="none" stroke="#FFD700" stroke-width="2"/>
  <g transform="translate(145, 140)">
    <rect x="-2" y="-14" width="4" height="6" fill="#FFD700"/>
    <rect x="-2" y="8" width="4" height="6" fill="#FFD700"/>
    <rect x="-14" y="-2" width="6" height="4" fill="#FFD700"/>
    <rect x="8" y="-2" width="6" height="4" fill="#FFD700"/>
  </g>
</svg>